<?xml version="1.0" encoding="UTF-8" standalone="no"?>
<svg
   xmlns:dc="http://purl.org/dc/elements/1.1/"
   xmlns:cc="http://creativecommons.org/ns#"
   xmlns:rdf="http://www.w3.org/1999/02/22-rdf-syntax-ns#"
   xmlns:svg="http://www.w3.org/2000/svg"
   xmlns="http://www.w3.org/2000/svg"
   viewBox="0 0 157.5 157.5"
   height="157.5"
   width="157.5"
   version="1.1"
   id="svg6049">
  <metadata
     id="metadata6055">
    <rdf:RDF>
      <cc:Work
         rdf:about="">
        <dc:format>image/svg+xml</dc:format>
        <dc:type
           rdf:resource="http://purl.org/dc/dcmitype/StillImage" />
        <dc:title></dc:title>
      </cc:Work>
    </rdf:RDF>
  </metadata>
  <defs
     id="defs6053" />
  <path
     id="path6059"
     d="M 68.125,155.46025 C 38.050494,150.81217 13.049045,128.86595 4.2318947,99.375 c -3.058788,-10.230807 -3.058788,-31.019193 0,-41.25 C 12.004526,32.127677 32.127677,12.004526 58.125,4.2318947 c 10.230807,-3.058788 31.019193,-3.058788 41.25,0 25.99733,7.7726313 46.12047,27.8957833 53.8931,53.8931053 3.05879,10.230807 3.05879,31.019193 0,41.25 -7.70045,25.75591 -28.0115,46.21654 -53.2681,53.66039 -7.053155,2.07877 -25.187947,3.45836 -31.875,2.42486 z m 23.414494,-3.07466 C 114.04336,148.24589 135.77184,133.18905 145.76375,111.52285 163.1099,73.909899 147.70772,28.192195 109.85442,10.735192 72.241467,-6.6109611 28.192195,10.125961 10.735192,47.979271 c -17.364704,37.653174 0.376699,81.630809 38.33066,99.166619 14.378478,6.64326 26.548803,8.16916 42.473642,5.2397 z M 50,80.625 l 0,-35.657336 23.351195,0.09325 c 12.843156,0.05129 24.374406,0.640851 25.625,1.310147 2.108245,1.128291 2.273805,3.566018 2.273805,33.479184 0,29.210735 -0.20813,32.450645 -2.200434,34.253655 -1.839805,1.665 -6.039492,2.00669 -25.625,2.0849 L 50,116.28234 Z m 31.735605,33.05957 c 0.377806,-0.37974 0.740466,-15.567235 0.805912,-33.749999 0.117463,-32.634839 0.08584,-33.058424 -2.461262,-32.970285 -1.41914,0.0491 -8.486505,0.189731 -15.705255,0.3125 L 51.83988,47.5 l 0,33.854686 0.117976,32.674924 14.191487,-0.0633 c 8.197769,-0.0366 15.208457,0.0979 15.586262,-0.28179 z M 97.5,112.5 c 2.87657,-1.69361 1.91012,-4.16667 1.91012,-32.346944 0,-32.882506 0.62538,-32.731336 -7.18814,-33.089996 l -4.922812,0.283844 0.491637,32.007571 c 0.274369,17.86255 -1.01457,32.723805 -0.670538,33.590605 C 87.979136,115.10902 94.430578,114.30716 97.5,112.5 Z M 85.933725,63.362766 C 85.720436,54.294495 84.390129,62.062514 84.367386,80.625 c -0.02313,18.877845 0.239214,40.76535 1.567558,16.487766 0.518829,-9.482425 0.21207,-35.653493 -0.0012,-44.721765 z M 107.62316,102.316 c -2.23451,-6.409939 -1.70024,-44.238434 0.65238,-46.19094 3.77391,-3.132063 4.38977,0.612982 3.99107,24.269634 -0.40691,24.144316 -1.71529,30.321036 -4.64345,21.921306 z m 2.64791,-23.618227 c 0,-8.24861 -0.0679,-13.699294 -0.58357,-13.698754 C 109.17188,64.999559 108.75,71.75 108.75,80 c 0,8.25 -0.05,13.936636 0.4656,13.934706 0.51563,-0.0019 1.05547,-6.988325 1.05547,-15.236933 z m 0.30053,-18.611401 c 0.39553,-0.639995 0.14747,-1.516941 -0.55124,-1.948771 -0.69871,-0.431829 -1.27039,0.0918 -1.27039,1.163628 0,2.195657 0.75007,2.518948 1.82162,0.785144 z"
     style="fill:#888888" />
</svg>
