<?xml version="1.0" encoding="UTF-8" standalone="no"?>
<svg
   xmlns:dc="http://purl.org/dc/elements/1.1/"
   xmlns:cc="http://creativecommons.org/ns#"
   xmlns:rdf="http://www.w3.org/1999/02/22-rdf-syntax-ns#"
   xmlns:svg="http://www.w3.org/2000/svg"
   xmlns="http://www.w3.org/2000/svg"
   viewBox="0 0 134.86475 208.49698"
   height="208.49698"
   width="134.86475"
   version="1.1"
   id="svg4339">
  <metadata
     id="metadata4345">
    <rdf:RDF>
      <cc:Work
         rdf:about="">
        <dc:format>image/svg+xml</dc:format>
        <dc:type
           rdf:resource="http://purl.org/dc/dcmitype/StillImage" />
        <dc:title></dc:title>
      </cc:Work>
    </rdf:RDF>
  </metadata>
  <defs
     id="defs4343" />
  <path
     id="path4895"
     d="m 57.784717,207.44041 c -0.91056,-0.57877 -1.65113,-4.89118 -1.875,-10.91837 l -0.37002,-9.96177 -8.125,-0.625 -8.125,-0.625 -0.36117,-10.9375 -0.36116,-10.9375 6.82143,0 c 10.98096,0 10.7759,0.27319 10.7759,-14.35568 0,-8.81686 -0.48943,-13.20257 -1.5625,-14.00142 -0.85938,-0.63976 -4.71345,-2.11734 -8.56462,-3.28349 -14.71488,-4.45576 -31.19193,-18.63877 -38.5212602,-33.158099 -17.06433,-33.80424 -3.69904,-74.48522 30.0152302,-91.3597478 38.46396,-19.2518102 84.706313,1.88215 95.527203,43.6584378 2.83057,10.92801 2.0526,29.00945 -1.69415,39.375 -7.16991,19.835839 -24.51314,36.391089 -43.949903,41.953069 -3.09375,0.88531 -6.32813,2.14253 -7.1875,2.79384 -2.11204,1.60069 -2.16592,24.77466 -0.0625,26.87809 0.825,0.825 4.70232,1.5 8.61626,1.5 5.33599,0 7.30608,0.49465 7.875,1.97724 1.43495,3.73941 0.81557,17.66948 -0.84699,19.04928 -0.88316,0.73297 -4.96129,1.50497 -9.06251,1.71557 l -7.45676,0.38291 -0.37002,9.96178 c -0.22387,6.02718 -0.96444,10.33959 -1.875,10.91836 -0.82774,0.52611 -5.16123,0.95657 -9.62998,0.95657 -4.46875,0 -8.80224,-0.43046 -9.62998,-0.95657 z m 29.25587,-97.71005 c 9.65384,-4.49142 18.303903,-13.003339 22.661383,-22.299469 2.92121,-6.23203 3.33773,-8.68379 3.33773,-19.6469 0,-11.63971 -0.29134,-13.11808 -4.11626,-20.8876 -18.102123,-36.770618 -71.645833,-33.117698 -85.331893,5.82161 -13.39721,38.11746 26.67271,74.122419 63.44904,57.012359 z"
     style="fill:#C28C90" />
</svg>
