<?xml version="1.0" encoding="UTF-8" standalone="no"?>
<svg
   xmlns:dc="http://purl.org/dc/elements/1.1/"
   xmlns:cc="http://creativecommons.org/ns#"
   xmlns:rdf="http://www.w3.org/1999/02/22-rdf-syntax-ns#"
   xmlns:svg="http://www.w3.org/2000/svg"
   xmlns="http://www.w3.org/2000/svg"
   viewBox="0 0 157.5 157.5"
   height="157.5"
   width="157.5"
   version="1.1"
   id="svg7602">
  <metadata
     id="metadata7608">
    <rdf:RDF>
      <cc:Work
         rdf:about="">
        <dc:format>image/svg+xml</dc:format>
        <dc:type
           rdf:resource="http://purl.org/dc/dcmitype/StillImage" />
        <dc:title></dc:title>
      </cc:Work>
    </rdf:RDF>
  </metadata>
  <defs
     id="defs7606" />
  <path
     id="path7630"
     d="M 59.002141,153.7223 C 45.049895,150.06704 35.660112,144.50142 24.329345,133.17065 12.843746,121.68506 7.4001621,112.397 3.7193057,98.004986 -0.95830121,79.715719 1.4748816,58.845395 10.236151,42.10756 15.593876,31.871973 31.871973,15.593876 42.10756,10.236151 52.491882,4.8005706 66.969891,1.25 78.75,1.25 c 11.780109,0 26.25812,3.5505706 36.64244,8.986151 10.23559,5.357725 26.51368,21.635822 31.87141,31.871409 11.7357,22.420298 11.7357,50.864582 0,73.28488 -5.35773,10.23559 -21.63582,26.51368 -31.87141,31.87141 -16.71557,8.74961 -38.236561,11.21444 -56.390299,6.45845 z m 43.286519,-4.44641 c 23.17997,-7.78125 38.70796,-23.24202 46.92386,-46.72068 C 152.4539,93.292304 152.94776,90.133264 152.93405,78.75 152.90986,58.668378 146.74919,42.586157 133.54702,28.140885 125.31061,19.128932 115.40715,12.784761 102.55521,8.2874749 93.312301,5.0530982 90.108689,4.5501427 78.75,4.5501427 c -11.358689,0 -14.562301,0.5029555 -23.805211,3.7373322 C 37.512964,14.387403 23.104354,25.84225 14.591491,40.368351 4.0335724,58.384078 1.4143931,82.643968 7.9658514,101.73769 c 4.1984086,12.23593 8.1233996,19.01726 15.9871236,27.62142 10.616756,11.61643 26.474344,20.19324 42.69995,23.09489 9.736099,1.74114 25.050074,0.37537 35.635735,-3.17811 z M 54,108.5 c -0.825,-0.825 -1.5,-2.17622 -1.5,-3.00271 0,-0.82649 5.338876,-6.555411 11.864169,-12.730934 C 77.330594,80.49496 77.498998,79.697385 67.430805,78.242575 62.41822,77.518279 60.555841,76.232055 51.87244,67.497425 46.447147,62.040125 42.402084,57.181249 42.88341,56.699922 43.364736,56.218596 48.19203,60.139207 53.610729,65.412393 62.511014,74.073669 63.938812,75 68.388561,75 c 4.743628,0 10.360533,3.770399 10.361965,6.955564 2.89e-4,0.64319 -5.484086,6.319765 -12.1875,12.614611 -9.903675,9.300055 -11.777965,11.609395 -10.000168,12.321375 1.671396,0.66936 4.821162,-1.88483 13.343173,-10.820176 L 81.061348,84.375 92.990851,96.185655 c 6.561228,6.495865 12.340349,11.399815 12.842479,10.897675 0.50214,-0.50213 -4.26119,-6.10875 -10.585175,-12.459139 C 88.92417,88.273801 83.75,82.472651 83.75,81.732747 c 0,-2.58177 4.418425,-5.183173 10.220921,-6.017696 11.009319,-1.583374 18.981829,-10.078569 18.246059,-19.442282 -0.49351,-6.280684 -4.89725,-7.618749 -12.677957,-3.852172 -7.302478,3.535069 -11.026403,8.730617 -11.764662,16.413824 -0.398352,4.145733 -1.472675,6.855551 -3.456973,8.719703 -2.823714,2.652741 -2.938258,2.660188 -5.964207,0.387781 -2.32479,-1.745856 -3.229623,-3.807168 -3.671165,-8.363323 -0.536966,-5.540798 -1.352612,-6.818215 -9.753887,-15.275936 -5.042358,-5.076236 -8.755299,-9.642142 -8.250983,-10.14646 0.504318,-0.504316 5.175107,3.341228 10.379532,8.545653 8.492726,8.492726 9.529282,10.054271 10.113267,15.235366 1.159878,10.290406 6.494107,10.970126 7.24345,0.923004 0.513609,-6.886427 4.795493,-13.41356 11.651977,-17.761815 6.316508,-4.005814 11.970978,-4.584163 16.156498,-1.652514 5.30475,3.715596 3.28103,16.179994 -3.68266,22.68196 -3.57959,3.342248 -11.118455,6.62216 -15.221006,6.62216 -1.65665,0 -3.739908,0.876964 -4.629459,1.948807 -1.389754,1.674552 0.02617,3.59921 10.061255,13.676193 10.03508,10.07698 11.45101,12.00164 10.06125,13.67619 -2.90029,3.49464 -5.47545,2.10835 -16.697326,-8.98869 L 81.053392,88.125 70.839196,99.075507 C 60.705557,109.93965 57.329274,111.82927 54,108.5 Z M 54.938434,61.81302 C 49.850459,56.690859 46.532326,52.5 47.564809,52.5 c 2.445494,0 19.297924,16.973769 17.782386,17.910421 -0.636842,0.393591 -5.320785,-3.47524 -10.408761,-8.597401 z m 4.471751,-4.277563 C 54.653914,52.742459 51.169331,48.414003 51.666666,47.916666 52.583804,46.99953 70,63.493277 70,65.278975 70,67.53616 67.573639,65.761948 59.410185,57.535457 Z"
     style="fill:#888888" />
</svg>
