<?xml version="1.0" encoding="UTF-8" standalone="no"?>
<svg
   xmlns:dc="http://purl.org/dc/elements/1.1/"
   xmlns:cc="http://creativecommons.org/ns#"
   xmlns:rdf="http://www.w3.org/1999/02/22-rdf-syntax-ns#"
   xmlns:svg="http://www.w3.org/2000/svg"
   xmlns="http://www.w3.org/2000/svg"
   viewBox="0 0 157.5 157.5"
   height="157.5"
   width="157.5"
   version="1.1"
   id="svg8010">
  <metadata
     id="metadata8016">
    <rdf:RDF>
      <cc:Work
         rdf:about="">
        <dc:format>image/svg+xml</dc:format>
        <dc:type
           rdf:resource="http://purl.org/dc/dcmitype/StillImage" />
        <dc:title></dc:title>
      </cc:Work>
    </rdf:RDF>
  </metadata>
  <defs
     id="defs8014" />
  <path
     id="path8022"
     d="M 61.45968,154.33316 C 33.672725,148.30175 9.0425497,123.45084 3.1130372,95.46362 -2.5498071,68.735071 4.8982396,43.771993 24.335116,24.335116 43.771993,4.8982396 68.735071,-2.5498071 95.46362,3.1130372 123.75364,9.1067029 148.3933,33.746359 154.38696,62.03638 c 3.73644,17.63596 1.51996,35.212692 -6.50091,51.55224 -6.5019,13.24522 -21.05221,27.79553 -34.29743,34.29743 -16.251514,7.97765 -34.614666,10.24874 -52.12894,6.44711 z M 94.375,151.8695 C 128.01306,144.8071 153.70659,113.14272 153.70659,78.75 153.70659,38.379592 119.12041,3.793409 78.75,3.793409 44.357284,3.793409 12.692896,29.486944 5.6304954,63.125 0.28530367,88.584026 7.5501217,112.70164 26.174242,131.32576 44.809099,149.96061 68.901299,157.21777 94.375,151.8695 Z M 58.12595,106.25154 c -0.44464,-0.71945 -0.707773,-2.84223 -0.58474,-4.71731 0.123037,-1.875076 0.164092,-7.945672 0.09125,-13.490215 L 57.5,77.963031 53.181487,75.903676 C 44.11811,71.581652 42.375337,58.949377 49.913179,52.213735 c 4.881711,-4.362186 10.068105,-6.598256 14.536609,-3.87279 5.601694,3.416631 2.124864,3.347074 6.765275,-0.227443 3.536851,-2.724444 10.593457,-2.871577 13.73411,-0.869728 3.336738,2.126834 1.932149,3.934198 6.869317,1.408766 12.49653,-6.392154 26.41518,9.048125 19.81601,20.378785 -1.31102,2.250992 -4.16091,5.21867 -6.33511,6.59367 -3.87204,2.448746 -3.95408,2.69799 -4.00124,12.157276 L 101.25,97.439553 80.3125,97.814621 59.375,98.189689 80.391697,98.469845 101.4084,98.75 l -0.3917,4.0625 -0.3917,4.0625 -20.845308,0.34231 c -13.528348,0.22215 -21.129078,-0.11685 -21.653742,-0.96577 z m 41.382165,-2.9597 c 0,-0.76245 -9.066225,-2.38564 -20.504851,-2.59612 C 62.73932,100.39646 60,101.44239 60,103.125 c 0,1.68261 2.489055,2.47827 18.752999,2.17901 11.438626,-0.21047 20.755116,-1.24972 20.755116,-2.01217 z M 98.75,84.375 c 0,-11.61379 -2.090159,-14.615885 -2.828448,-4.0625 -0.430078,6.147707 -0.473711,6.029195 -0.690325,-1.875 C 95.005733,70.209172 95.077471,70 98.125,70 c 3.57996,0 8.125,-3.985651 8.125,-7.125 0,-1.544678 -0.54236,-3.668421 0.45653,-2.669526 2.09297,2.092969 0.17642,8.032089 -4.00621,10.575707 -2.25881,1.373663 -2.36587,3.027975 -1.54034,3.538183 0.75223,0.464902 3.54949,-0.41889 5.60438,-2.473781 7.77361,-7.773606 2.21542,-21.680064 -8.518501,-21.680064 -3.022245,0 -5.356242,1.944863 -6.795009,3.383631 -2.2322,2.2322 -3.946859,1.200267 -5.472166,-2.002119 C 84.331382,48.088518 77.602778,47.52024 74.168432,49.287606 68.384631,52.264036 69.013829,56.290041 66.696429,53.125 63.537964,48.811256 55.664796,49.89543 52.763123,52.954163 49.317097,56.586714 47.057235,60.827869 48.137618,65.057446 49.103666,68.839415 55.191786,75 58.220906,75 59.61144,75 60,77.184034 60,85 l 0,10 19.375,0 19.375,0 z"
     style="fill:#888888" />
</svg>
