<?xml version="1.0" encoding="UTF-8" standalone="no"?>
<svg
   xmlns:dc="http://purl.org/dc/elements/1.1/"
   xmlns:cc="http://creativecommons.org/ns#"
   xmlns:rdf="http://www.w3.org/1999/02/22-rdf-syntax-ns#"
   xmlns:svg="http://www.w3.org/2000/svg"
   xmlns="http://www.w3.org/2000/svg"
   xmlns:xlink="http://www.w3.org/1999/xlink"
   version="1.1"
   id="svg2"
   viewBox="0 0 176.2754 176.96498"
   height="49.943451mm"
   width="49.748837mm">
  <defs
     id="defs4" />
  <metadata
     id="metadata7">
    <rdf:RDF>
      <cc:Work
         rdf:about="">
        <dc:format>image/svg+xml</dc:format>
        <dc:type
           rdf:resource="http://purl.org/dc/dcmitype/StillImage" />
        <dc:title></dc:title>
      </cc:Work>
    </rdf:RDF>
  </metadata>
  <g
     transform="translate(-300.32887,-67.543607)"
     id="layer1">
    <image
       width="191.25"
       height="231.25"
       preserveAspectRatio="none"
       style="image-rendering:optimizeQuality"
       xlink:href="file:///Users/Ollie/Desktop/male.png"
       id="image4230"
       x="60.803524"
       y="27.451509" />
    <path
       id="path4245"
       d="m 357.82919,243.54691 c -27.30853,-4.89805 -49.10912,-25.22143 -55.32228,-51.57363 -8.10844,-34.39081 11.48322,-68.9498 45.61804,-80.46856 4.9671,-1.67614 10.51736,-2.31996 20,-2.31996 13.97687,0 21.75374,1.82848 32.34495,7.60489 3.00846,1.64081 6.11181,2.98329 6.89631,2.98329 1.54015,0 28.25874,-26.315975 28.25874,-27.832914 0,-0.504398 -3.30612,-0.917088 -7.34695,-0.917088 -4.78538,0 -7.8552,-0.612414 -8.80471,-1.756505 -0.91483,-1.102307 -1.321,-5.408673 -1.09055,-11.5625 l 0.36721,-9.805995 28.75,0 28.75,0 0,28.75 0,28.750002 -10.625,0 -10.625,0 -0.38113,-7.5 c -0.20963,-4.125 -0.79077,-7.91239 -1.29142,-8.41642 -0.50065,-0.50403 -7.26932,5.46072 -15.04148,13.255 l -14.13122,14.17141 3.87377,7.67387 c 5.3242,10.54717 7.59916,20.15405 7.58165,32.01626 -0.0532,36.10508 -26.96009,64.71305 -63.38076,67.38803 -4.66367,0.34252 -11.14375,0.1449 -14.40017,-0.43918 z m 25.92076,-23.36831 c 8.02115,-2.76617 17.59021,-10.0712 22.46589,-17.15047 14.24739,-20.68657 9.67197,-49.12308 -10.27637,-63.86828 -23.41515,-17.30778 -57.00513,-8.73214 -69.886,17.84213 -3.02486,6.24053 -3.46942,8.65058 -3.50863,19.02096 -0.039,10.32371 0.39275,12.80872 3.30518,19.02259 10.52641,22.45872 34.93348,33.0533 57.89993,25.13307 z"
       style="fill:#94BDB9" />
  </g>
</svg>
